<svg width="143" height="29" viewBox="0 0 143 29" fill="none" xmlns="http://www.w3.org/2000/svg">
<g clip-path="url(#clip0_2329_2)">
<path d="M48.0516 19.8924L54.4282 18.5639L60.1215 17.3873C59.0587 11.8724 56.0375 9.11304 51.0501 9.11304C47.9378 9.11304 45.4707 10.0999 43.6488 12.0736C41.8269 14.0472 40.916 16.4498 40.916 19.2851C40.916 22.1204 41.8231 24.2649 43.6298 26.0981C45.4403 27.9314 47.7366 28.8499 50.5188 28.8499C53.8095 28.8499 56.8459 27.5214 59.6281 24.8646V24.2952C58.163 25.0316 56.6448 25.3959 55.0734 25.3959C51.2285 25.3959 48.8867 23.5627 48.0516 19.8924ZM47.71 16.5523C47.71 14.7304 47.9643 13.2388 48.4692 12.0736C48.9778 10.9121 49.7483 10.3276 50.7844 10.3276C52.204 10.3276 53.039 12.4911 53.2895 16.818L47.8619 18.9055C47.7632 18.2224 47.71 17.4405 47.71 16.5523Z" fill="black"/>
<path d="M91.3509 25.7757V0.00390625H81.7861V0.231639L84.7087 3.38194V28.4705H94.0837V28.2428L91.3509 25.7757Z" fill="black"/>
<path d="M106.419 25.7755C105.307 25.7755 104.502 25.525 104.009 25.0164C103.516 24.5116 103.269 23.6766 103.269 22.5114V11.2386H109.38V9.83425H103.269V2.32666H102.931C101.572 5.73127 97.6363 9.68623 94.1216 10.7262L93.7041 10.8515V11.2386H96.6267V22.0559C96.6267 24.2573 97.0328 25.9388 97.8412 27.104C98.6497 28.2692 100.13 28.8499 102.282 28.8499C103.546 28.8499 104.863 28.5653 106.229 27.9959C107.596 27.4266 108.697 26.6979 109.532 25.8135V25.1683C108.495 25.5744 107.455 25.7755 106.419 25.7755Z" fill="black"/>
<path d="M132.267 25.7756V16.8181C132.267 15.706 132.237 14.795 132.172 14.0853C132.108 13.3793 131.975 12.6771 131.774 11.9787C131.573 11.2842 131.269 10.7452 130.863 10.3656C130.457 9.98608 129.914 9.68244 129.231 9.45471C128.548 9.22697 127.713 9.11311 126.726 9.11311C123.89 9.11311 121.184 9.99747 118.603 11.77L118.527 11.8079V0H109.152V0.227733L111.885 3.37804V28.4666H121.26V28.2389L118.527 25.7718V13.2465C119.666 12.5898 121.07 12.2596 122.74 12.2596C123.83 12.2596 124.581 12.5784 124.999 13.2085C125.416 13.8424 125.625 14.9051 125.625 16.3968V25.7718L122.892 28.2389V28.4666H135V28.2389L132.267 25.7718V25.7756Z" fill="black"/>
<path d="M82.6825 28.2426V28.4703H81.4072V27.0925L82.6825 28.2426Z" fill="black"/>
<path d="M81.4068 27.0925L79.9493 25.7755V17.9567C79.9493 16.7952 79.9076 15.8274 79.8165 15.0531C79.7292 14.2826 79.528 13.4855 79.2092 12.6619C78.8942 11.842 78.4463 11.1968 77.8618 10.7261C77.2811 10.2593 76.484 9.87215 75.4706 9.5685C74.461 9.26486 73.2198 9.11304 71.751 9.11304C63.8107 9.11304 62.82 12.381 62.6872 13.3375C62.4746 14.8557 63.545 16.7231 65.7616 16.6776C67.629 16.6396 69.0485 15.0758 68.9802 13.2084C68.9498 12.4493 68.7221 11.9825 68.4906 11.5498C68.3767 11.3296 68.2363 11.1285 68.0769 10.9425C68.0275 10.8856 67.9744 10.8324 67.9212 10.7793L68.6386 10.7186H68.7145C70.2859 10.7186 71.8269 10.7983 72.419 11.6561C73.0149 12.5176 73.3109 14.0093 73.3109 16.1348V17.4253L65.2644 19.5204C63.2527 20.0442 61.7876 21.8319 61.7725 23.9081C61.7725 23.9233 61.7725 23.9384 61.7725 23.9536C61.7725 25.2707 62.2659 26.4131 63.2527 27.3886C64.2396 28.3641 65.5832 28.8499 67.276 28.8499C69.5306 28.8499 71.6029 27.9276 73.5007 26.0791V28.4703H82.6859V28.2426L81.4106 27.0925H81.4068ZM73.3071 25.1302C72.6012 25.7375 71.8534 26.0412 71.0678 26.0412C70.2821 26.0412 69.6596 25.7755 69.189 25.2441C68.7221 24.7127 68.4868 23.9422 68.4868 22.9288C68.4868 22.9212 68.4868 22.9136 68.4868 22.9023C68.4944 21.5928 69.2952 20.4162 70.4643 19.8317L73.3071 18.4121V25.1302Z" fill="black"/>
<path d="M29.0739 28.4666L22.4696 7.02176L15.9413 28.4666H10.6655L2.73279 2.69484L0 0.227733V0H9.50405V0.227733L10.0582 2.69484L15.8274 23.3426L21.5207 3.90941L22.3861 0.910931H27.8593L34.2358 23.3426L40.1189 3.1503L36.8927 0.227733V0H43.0149V0.227733L42.0926 3.03644L34.3497 28.4666H29.0739Z" fill="black"/>
</g>
<g clip-path="url(#clip1_2329_2)">
<path d="M139.375 0.09375C137.77 0.09375 136.469 1.39492 136.469 3C136.469 4.60508 137.77 5.90625 139.375 5.90625C140.98 5.90625 142.281 4.60508 142.281 3C142.281 1.39492 140.98 0.09375 139.375 0.09375ZM139.375 5.34375C138.08 5.34375 137.031 4.2955 137.031 3C137.031 1.70471 138.08 0.65625 139.375 0.65625C140.67 0.65625 141.719 1.7045 141.719 3C141.719 4.2953 140.67 5.34375 139.375 5.34375ZM140.633 4.15941C140.52 4.27322 140.099 4.64452 139.414 4.64452C138.448 4.64452 137.767 3.92469 137.767 2.98553C137.767 2.05796 138.474 1.35192 139.405 1.35192C140.056 1.35192 140.445 1.66388 140.549 1.75949C140.573 1.78191 140.589 1.81225 140.593 1.84512C140.597 1.87798 140.589 1.91126 140.571 1.93904L140.359 2.26849C140.314 2.33822 140.218 2.35383 140.154 2.30272C140.053 2.22332 139.781 2.03861 139.43 2.03861C138.864 2.03861 138.517 2.45263 138.517 2.97707C138.517 3.46444 138.832 3.95783 139.435 3.95783C139.817 3.95783 140.101 3.73472 140.205 3.63879C140.267 3.58187 140.364 3.59146 140.414 3.65916L140.647 3.97755C140.666 4.00448 140.676 4.03762 140.673 4.07098C140.671 4.10434 140.657 4.1357 140.633 4.15941Z" fill="black"/>
</g>
<defs>
<clipPath id="clip0_2329_2">
<rect width="135" height="28.85" fill="white"/>
</clipPath>
<clipPath id="clip1_2329_2">
<rect width="6" height="6" fill="white" transform="translate(136.375)"/>
</clipPath>
</defs>
</svg>
